<svg width="250" height="200" viewBox="0 0 363 303" fill="none" xmlns="http://www.w3.org/2000/svg">
<path d="M2.36377 213.78L105.671 107.789L168.762 179.683C168.762 179.683 317.191 147.628 360.126 162.198L278.917 288.783L105.671 286.05L2.36377 213.78Z" fill="white"/>
<path d="M280.258 275.91C279.879 275.643 279.417 275.487 278.918 275.487H114.992C137.201 264.58 163.263 259.122 192.978 259.122C216.474 259.122 242.258 262.538 270.205 269.373C270.388 269.418 270.573 269.439 270.758 269.439C271.474 269.439 272.164 269.109 272.611 268.523L352.712 163.601C352.905 163.348 353.042 163.062 353.119 162.76C354.295 162.998 355.422 163.258 356.495 163.542L328.151 207.723L326.621 209.901L280.258 275.91ZM96.3396 269.291L10.666 216.182C16.1518 217.138 26.9038 219.572 39.9346 225.396C55.3809 232.299 76.9335 245.362 96.3396 269.291Z" fill="#B2B2D4"/>
<path d="M106.422 283.73L277.656 286.431L356.494 163.542C311.205 151.562 170.7 181.65 169.254 181.963C168.425 182.142 167.567 181.858 167.009 181.222L105.581 111.221L5.94823 213.442L106.422 283.73ZM278.917 291.114C278.906 291.114 278.893 291.114 278.88 291.114L105.633 288.382C105.169 288.374 104.716 288.227 104.334 287.961L1.0274 215.69C0.466758 215.298 0.106822 214.678 0.0425664 213.999C-0.0218176 213.316 0.21677 212.642 0.69421 212.152L104.001 106.161C104.454 105.697 105.086 105.442 105.732 105.458C106.381 105.475 106.994 105.763 107.423 106.252L169.612 177.117C185.495 173.744 319.516 145.954 360.874 159.992C361.554 160.222 362.089 160.752 362.326 161.429C362.563 162.105 362.474 162.854 362.088 163.458L280.879 290.041C280.451 290.71 279.711 291.114 278.917 291.114Z" fill="#000072"/>
<path d="M2.36426 213.778V234.762L105.671 297.999V277.818L2.36426 213.778Z" fill="#7481e9"/>
<path d="M103.34 293.839L4.69531 233.455V227.001L88.0812 278.043C89.1154 278.677 90.2239 278.965 91.3029 278.965C93.7477 278.965 96.0479 277.489 97.022 275.199L103.34 279.116V293.839Z" fill="#616ecf"/>
<path d="M4.69525 233.455L103.34 293.839V279.116L4.69525 217.968V233.455ZM105.671 300.33C105.248 300.33 104.827 300.216 104.454 299.986L1.14683 236.749C0.454731 236.326 0.0327148 235.572 0.0327148 234.762V213.78C0.0327148 212.932 0.490958 212.154 1.2299 211.742C1.96936 211.331 2.87342 211.352 3.5924 211.798L106.9 275.837C107.584 276.262 108.002 277.01 108.002 277.818V297.999C108.002 298.842 107.546 299.62 106.81 300.033C106.456 300.231 106.064 300.33 105.671 300.33Z" fill="#000072"/>
<path d="M105.671 277.818V297.999L278.918 299.747V277.818H105.671Z" fill="#7481e9"/>
<path d="M276.586 297.392L108.001 295.691V280.149H114.633C117.887 285.768 123.936 289.57 130.89 289.64L276.586 291.111V297.392Z" fill="#616ecf"/>
<path d="M108.002 295.691L276.587 297.392V280.149H108.002V295.691ZM278.917 302.078H278.894L105.648 300.33C104.369 300.317 103.34 299.276 103.34 297.999V277.818C103.34 276.53 104.383 275.487 105.671 275.487H278.917C280.205 275.487 281.248 276.53 281.248 277.818V299.747C281.248 300.369 281 300.966 280.558 301.403C280.121 301.836 279.532 302.078 278.917 302.078Z" fill="#000072"/>
<path d="M360.126 162.198L278.917 277.818V299.747L360.126 188.889V162.198Z" fill="#FF926B"/>
<path d="M360.126 162.198L278.917 277.818V299.747L360.126 188.889V162.198Z" fill="#7481e9"/>
<path d="M278.917 299.747V289.839L360.126 178.982V188.889L278.917 299.747Z" fill="#616ecf"/>
<path d="M281.248 278.555V292.619L357.795 188.127V169.574L281.248 278.555ZM278.917 302.078C278.675 302.078 278.431 302.041 278.193 301.963C277.234 301.649 276.586 300.754 276.586 299.747V277.818C276.586 277.338 276.734 276.871 277.01 276.478L358.217 160.858C358.802 160.026 359.858 159.669 360.828 159.975C361.797 160.282 362.457 161.182 362.457 162.198V188.889C362.457 189.384 362.299 189.867 362.006 190.266L280.798 301.124C280.351 301.735 279.646 302.078 278.917 302.078Z" fill="#000072"/>
<path d="M105.671 277.818L170.501 176.459C170.501 176.459 174.138 116.985 98.8699 99.9596L6.9292 213.293C6.9292 213.293 64.0463 218.151 105.671 277.818Z" fill="white"/>
<path d="M96.2115 261.887C77.1818 239.997 56.6326 227.725 41.6391 221.05C28.072 215.011 17.0485 212.528 11.3423 211.555L15.906 205.93C23.3236 207.233 33.606 209.752 44.6286 214.604C67.6087 224.721 84.8976 240.586 96.2115 261.887Z" fill="#B2B2D4"/>
<path d="M11.3422 211.555C17.0484 212.528 28.0719 215.011 41.639 221.05C59.1324 228.838 84.1833 244.241 105.567 273.653L168.191 175.745C168.236 172.9 168.001 159.867 160.721 145.429C149.907 123.98 129.403 109.562 99.7634 102.559L11.3422 211.555ZM105.671 280.149C104.909 280.149 104.195 279.778 103.758 279.152C82.6204 248.85 57.3839 233.194 39.9344 225.396C20.9957 216.931 6.87023 215.628 6.73007 215.617C5.87029 215.542 5.12124 214.998 4.78434 214.205C4.44719 213.411 4.57519 212.495 5.11881 211.825L97.0601 98.4914C97.6194 97.8028 98.518 97.4892 99.3845 97.6863C139.155 106.682 157.017 127.594 164.996 143.551C173.676 160.908 172.867 175.969 172.828 176.602C172.804 176.998 172.68 177.382 172.466 177.716L107.634 279.074C107.216 279.729 106.496 280.132 105.717 280.149C105.701 280.149 105.686 280.149 105.671 280.149Z" fill="#000072"/>
<path d="M105.671 277.818L170.502 176.459C170.502 176.459 174.138 116.985 98.8702 99.9596L4.40381 202.219C4.40381 202.219 79.9774 204.163 105.671 277.818Z" fill="white"/>
<path d="M97.4594 254.728C82.8981 230.555 62.5192 217.357 46.3384 210.262C31.3831 203.705 17.9841 201.286 10.5576 200.397L15.2045 195.226C22.9377 195.829 36.9041 197.853 51.4409 204.562C73.5643 214.772 88.9743 231.595 97.4594 254.728Z" fill="#B2B2D4"/>
<path d="M9.38406 200.264C16.5106 201.031 30.5579 203.343 46.3387 210.262C66.133 218.942 92.2066 236.753 106.233 272.614L168.191 175.745C168.236 172.9 168.002 159.867 160.721 145.429C149.895 123.956 129.357 109.53 99.6651 102.536L9.38406 200.264ZM105.672 280.149C105.581 280.149 105.49 280.144 105.4 280.134C104.513 280.029 103.764 279.428 103.469 278.586C93.0578 248.735 73.26 227.21 44.6287 214.604C23.1753 205.159 4.52876 204.555 4.3429 204.55C3.42847 204.525 2.61171 203.969 2.25663 203.125C1.90118 202.283 2.07103 201.309 2.69158 200.637L97.1576 98.3788C97.7234 97.767 98.572 97.5033 99.3848 97.6863C139.156 106.682 157.017 127.594 164.996 143.551C173.676 160.908 172.867 175.969 172.829 176.602C172.804 176.998 172.68 177.382 172.466 177.716L107.634 279.074C107.203 279.748 106.459 280.149 105.672 280.149Z" fill="#000072"/>
<path d="M105.671 277.818L170.502 176.459C170.502 176.459 174.138 116.985 98.8703 99.9596L8.9209 192.652C8.9209 192.652 92.2169 190.174 105.671 277.818Z" fill="white"/>
<path d="M107.55 270.554C99.1544 228.452 74.563 209.085 53.0834 200.185C39.5563 193.997 26.7442 191.673 18.4194 190.81L26.6555 181.892C34.4516 182.425 45.947 184.262 57.8258 189.869C85.836 203.091 102.726 229.979 108.032 269.799L107.55 270.554Z" fill="#B2B2D4"/>
<path d="M14.2903 190.466C22.0597 190.947 37.1465 192.866 53.224 200.25C66.623 206.403 77.8845 215.093 86.696 226.078C96.6006 238.422 103.394 253.689 106.931 271.521L168.191 175.745C168.236 172.9 168.002 159.867 160.721 145.429C149.89 123.947 129.34 109.517 99.6278 102.529L14.2903 190.466ZM105.671 280.149C105.511 280.149 105.349 280.132 105.188 280.099C104.24 279.898 103.514 279.13 103.367 278.171C97.9241 242.718 80.4547 217.951 51.4411 204.562C29.6763 194.517 9.19134 194.974 8.98846 194.982C8.02449 195.005 7.16919 194.458 6.78763 193.59C6.40542 192.722 6.58692 191.709 7.24766 191.028L97.1971 98.3366C97.7629 97.7542 98.5923 97.5071 99.3846 97.6863C139.155 106.682 157.017 127.594 164.996 143.551C173.676 160.908 172.867 175.969 172.828 176.602C172.804 176.998 172.68 177.382 172.466 177.716L107.634 279.074C107.2 279.754 106.455 280.149 105.671 280.149Z" fill="#000072"/>
<path d="M176.767 170.193L105.671 277.818C136.318 260.114 186.732 246.557 270.758 267.108L350.859 162.186C350.859 162.186 258.209 110.58 176.767 170.193Z" fill="white"/>
<path d="M113.608 270.974C125.011 259.582 152.794 248.148 195.059 248.148C215.35 248.148 238.985 250.785 265.736 257.328C265.92 257.373 266.106 257.395 266.29 257.395C267.008 257.395 267.698 257.062 268.145 256.474L341.361 160.196C343.898 161.318 345.907 162.279 347.319 162.98L307.651 214.942L272.275 258.133C270.602 260.176 268.121 261.328 265.548 261.328C264.908 261.328 264.261 261.256 263.621 261.11C239.368 255.542 218.152 253.26 199.522 253.26C186.238 253.26 174.271 254.42 163.455 256.378C145.219 258.851 128.578 263.719 113.608 270.974Z" fill="#B2B2D4"/>
<path d="M178.481 171.829L112.689 271.423C153.184 251.439 205.982 249.101 269.828 264.484L347.319 162.98C340.597 159.64 320.364 150.425 293.82 146.11C263.96 141.256 219.752 141.79 178.481 171.829ZM105.672 280.149C105.045 280.149 104.426 279.897 103.973 279.416C103.232 278.63 103.13 277.435 103.725 276.533L174.821 168.908C174.975 168.678 175.167 168.475 175.391 168.313C194.257 154.502 215.296 145.48 237.923 141.497C255.999 138.316 275.112 138.328 294.729 141.534C328.091 146.987 351.032 159.614 351.994 160.149C352.585 160.478 353.004 161.049 353.142 161.711C353.279 162.374 353.123 163.062 352.712 163.601L272.611 268.523C272.049 269.26 271.103 269.593 270.204 269.373C202.491 252.812 147.527 256.331 106.837 279.837C106.472 280.048 106.07 280.149 105.672 280.149Z" fill="#000072"/>
<path d="M176.767 170.193L109.268 272.373C124.857 252.067 182.263 234.511 266.29 255.062L344 152.874C344 152.874 258.208 110.58 176.767 170.193Z" fill="white"/>
<path d="M261.691 248.973C261.179 248.973 260.662 248.915 260.149 248.797C235.309 243.041 212.872 240.634 193.239 240.634C183.197 240.634 173.887 241.264 165.366 242.398C178.212 239.298 192.017 237.75 206.495 237.75C224.464 237.75 243.464 240.135 262.919 244.894C263.103 244.939 263.29 244.961 263.474 244.961C264.19 244.961 264.88 244.629 265.327 244.043L335.577 151.879C335.929 152.012 336.268 152.141 336.596 152.268C336.694 153.037 336.758 153.84 336.788 154.677L267.13 246.276C265.821 247.998 263.797 248.973 261.691 248.973Z" fill="#B2B2D4"/>
<path d="M178.481 171.829L120.251 259.976C130.624 253.675 144.933 248.827 161.74 246.095C182.813 242.669 217.822 241.022 265.357 252.438L340.368 153.799C333.776 150.987 315.188 143.89 290.517 141.481C262.188 138.714 219.789 141.743 178.481 171.829ZM109.266 274.704C108.796 274.704 108.324 274.563 107.915 274.271C106.892 273.543 106.631 272.135 107.322 271.088L174.821 168.908C174.975 168.678 175.167 168.475 175.391 168.313C194.226 154.526 214.868 145.021 236.74 140.065C254.233 136.1 272.541 135.023 291.153 136.858C322.839 139.986 344.14 150.343 345.032 150.782C345.657 151.09 346.111 151.661 346.27 152.34C346.43 153.017 346.277 153.73 345.856 154.285L268.145 256.474C267.584 257.213 266.637 257.548 265.736 257.328C178.654 236.029 124.681 256.123 111.117 273.793C110.659 274.389 109.966 274.704 109.266 274.704Z" fill="#000072"/>
<path d="M176.767 170.193L110.419 270.074C126.009 249.768 179.446 222.077 263.473 242.63L339.144 143.354C339.144 143.354 258.208 110.58 176.767 170.193Z" fill="white"/>
<path d="M178.478 171.83L122.882 255.527C148.247 237.964 196.736 224.29 262.541 240.006L335.356 144.475C328.753 142.27 311.404 137.283 288.241 136.744C260.973 136.095 219.834 141.691 178.478 171.83ZM110.418 272.405C109.948 272.405 109.475 272.264 109.064 271.971C108.042 271.24 107.783 269.831 108.478 268.784L174.825 168.903C174.978 168.675 175.168 168.474 175.391 168.313C217.991 137.131 260.444 131.409 288.553 132.088C319.04 132.831 339.176 140.852 340.018 141.194C340.693 141.465 341.2 142.037 341.392 142.737C341.584 143.439 341.438 144.189 340.997 144.767L265.326 244.043C264.766 244.78 263.818 245.114 262.919 244.894C226.361 235.952 191.423 235.395 161.883 243.283C129.255 251.995 115.658 267.079 112.269 271.494C111.811 272.09 111.12 272.405 110.418 272.405Z" fill="#000072"/>
<path d="M176.767 170.193L110.419 270.074C126.009 249.768 179.446 222.077 263.473 242.63L339.144 143.354C339.144 143.354 258.208 110.58 176.767 170.193Z" fill="white"/>
<path d="M178.478 171.83L122.882 255.527C148.247 237.964 196.736 224.29 262.541 240.006L335.356 144.475C328.753 142.27 311.404 137.283 288.241 136.744C260.973 136.095 219.834 141.691 178.478 171.83ZM110.418 272.405C109.948 272.405 109.475 272.264 109.064 271.971C108.042 271.24 107.783 269.831 108.478 268.784L174.825 168.903C174.978 168.675 175.168 168.474 175.391 168.313C217.991 137.131 260.444 131.409 288.553 132.088C319.04 132.831 339.176 140.852 340.018 141.194C340.693 141.465 341.2 142.037 341.392 142.737C341.584 143.439 341.438 144.189 340.997 144.767L265.326 244.043C264.766 244.78 263.818 245.114 262.919 244.894C226.361 235.952 191.423 235.395 161.883 243.283C129.255 251.995 115.658 267.079 112.269 271.494C111.811 272.09 111.12 272.405 110.418 272.405Z" fill="#000072"/>
<path d="M203.307 150.61C203.174 150.503 203.037 150.395 202.895 150.288C204.725 149.473 206.554 148.694 208.372 147.953C206.692 148.808 205.007 149.691 203.307 150.61Z" fill="#83A7D4"/>
<path d="M139.33 246.326C155.733 235.377 178.807 225.997 209.713 225.997C222.636 225.997 236.932 227.637 252.679 231.489C252.862 231.533 253.047 231.555 253.232 231.555C253.943 231.555 254.631 231.228 255.079 230.648L323.945 141.27C327.06 142.008 329.721 142.737 331.875 143.379L261.636 232.45C259.476 234.149 256.594 235.812 253.346 235.812C252.978 235.812 252.607 235.791 252.232 235.747C251.58 235.669 251.115 235.544 250.947 235.5C247.132 234.49 239.019 233.148 227.825 231.295C224.397 230.728 217.772 230.001 209.104 230.001C200.837 230.001 190.714 230.662 179.742 232.752C165.801 235.407 153.746 239.748 143.76 244.427C142.243 245.044 140.767 245.676 139.33 246.326Z" fill="#B2B2D4"/>
<path d="M138.176 247.106C138.556 246.845 138.942 246.585 139.33 246.326C140.767 245.676 142.243 245.044 143.76 244.427C142.052 245.227 140.405 246.037 138.819 246.85C138.605 246.934 138.39 247.02 138.176 247.106ZM331.875 143.378C329.721 142.737 327.059 142.008 323.945 141.27L324.713 140.273C329.699 141.617 332.443 142.658 332.443 142.658L331.875 143.378Z" fill="#000072"/>
<path d="M176.767 170.193L110.419 270.074C126.009 249.768 169.206 208.673 253.232 229.224L328.264 131.846C328.264 131.846 258.208 110.58 176.767 170.193Z" fill="white"/>
<path d="M178.478 171.83L126.61 249.914C134.257 243.539 143.719 237.261 155.222 232.194C183.259 219.842 215.918 217.963 252.309 226.604L324.236 133.254C317.938 131.882 303.134 129.428 282.994 131.007C258.152 132.958 219.88 141.629 178.478 171.83ZM110.418 272.405C109.948 272.405 109.475 272.264 109.064 271.971C108.042 271.24 107.783 269.831 108.478 268.784L174.825 168.903C174.978 168.675 175.168 168.474 175.391 168.313C217.904 137.195 257.307 128.312 282.876 126.34C310.69 124.199 328.209 129.393 328.941 129.616C329.675 129.837 330.25 130.406 330.485 131.135C330.718 131.865 330.578 132.662 330.111 133.269L255.079 230.648C254.515 231.379 253.573 231.707 252.679 231.489C169.321 211.101 126.716 252.674 112.269 271.494C111.811 272.09 111.12 272.405 110.418 272.405Z" fill="#000072"/>
<path d="M110.419 270.074L176.767 170.193C176.767 170.193 176.434 94.5478 102.393 90.7641L16.4976 179.539C16.4976 179.539 97.5376 171.044 110.419 270.074Z" fill="white"/>
<path d="M22.1815 177.017C29.939 177.098 44.328 178.389 59.6177 185.56C72.6814 191.684 83.6459 200.848 92.2052 212.792C101.89 226.306 108.483 243.418 111.839 263.724L174.417 169.517C174.285 165.991 173.245 149.433 165.175 132.766C153.309 108.254 132.503 94.9292 103.326 93.1526L22.1815 177.017ZM110.42 272.405C110.244 272.405 110.068 272.386 109.892 272.345C108.945 272.125 108.233 271.339 108.108 270.375C102.887 230.241 85.9703 203.155 57.8257 189.869C36.7783 179.933 16.9365 181.836 16.7386 181.857C15.7627 181.95 14.8296 181.438 14.4017 180.556C13.9737 179.675 14.1411 178.621 14.8224 177.917L100.717 89.1436C101.184 88.6598 101.835 88.3884 102.512 88.4371C141.9 90.4492 160.652 112.632 169.446 130.886C178.905 150.52 179.095 169.389 179.098 170.183C179.101 170.645 178.965 171.098 178.709 171.483L112.361 271.364C111.924 272.024 111.189 272.405 110.42 272.405Z" fill="#000072"/>
<path d="M126.61 249.914L171.802 181.882C172.309 182.024 172.827 182.139 173.355 182.23C173.471 182.251 173.589 182.27 173.705 182.288C174.518 182.417 175.332 182.48 176.14 182.48C176.178 182.48 176.217 182.48 176.256 182.48L172.624 188.058C176.114 187.078 179.583 186.545 182.367 186.545C185.453 186.545 187.696 187.199 188.19 188.62C188.689 190.056 188.268 191.673 187.467 193.206C185.586 196.801 181.981 199.131 177.97 199.745C174.645 200.253 171.236 201.137 167.981 202.182C168.902 210.447 175.894 217.566 184.986 217.566C186.022 217.566 187.086 217.474 188.171 217.279C196.48 215.794 205.557 214.809 215.023 214.809C228.254 214.809 242.24 216.737 255.916 221.922L252.309 226.604C237.35 223.051 223.022 221.277 209.387 221.277C189.85 221.277 171.734 224.92 155.222 232.194C143.719 237.261 134.257 243.539 126.61 249.914Z" fill="#B2B2D4"/>
<path d="M121.392 257.77L171.802 181.882L126.61 249.914C134.257 243.538 143.719 237.261 155.222 232.194C171.734 224.92 189.85 221.277 209.386 221.277C223.022 221.277 237.349 223.051 252.309 226.604L255.916 221.922C256.67 222.207 257.424 222.503 258.175 222.809L253.232 229.224C237.169 225.296 222.61 223.62 209.439 223.62C165.927 223.62 137.682 241.927 121.392 257.77Z" fill="#000072"/>
<path d="M111.839 263.724C108.483 243.418 101.89 226.306 92.2053 212.792C83.646 200.848 72.6815 191.684 59.6178 185.56C44.3281 178.389 29.9391 177.098 22.1816 177.017L27.4904 171.53C46.7794 174.998 73.1154 183.034 91.3682 201.656C98.645 209.078 108.129 212.697 117.537 212.697C126.854 212.697 136.097 209.146 143.038 202.225C141.428 200.685 139.884 199.5 138.567 198.613C133.415 195.146 133.264 187.44 138.531 184.152C139.894 183.302 141.487 182.781 143.249 182.781C143.399 182.781 143.549 182.785 143.701 182.792C147.099 182.963 150.609 185.213 153.484 187.692L162.261 174.25C163.513 176.555 165.315 178.512 167.497 179.935L111.839 263.724Z" fill="#B2B2D4"/>
<path d="M110.419 270.074C99.423 185.538 38.7635 179.356 21.2414 179.356C18.2371 179.356 16.4976 179.537 16.4976 179.537L24.7079 171.052C25.6169 171.201 26.5456 171.361 27.4902 171.53L22.1814 177.017C29.9388 177.098 44.3278 178.389 59.6176 185.56C72.6812 191.684 83.6457 200.848 92.2051 212.792C101.89 226.306 108.483 243.418 111.839 263.724L167.497 179.935C168.807 180.789 170.254 181.452 171.802 181.882L121.392 257.77C116.818 262.218 113.183 266.474 110.419 270.074Z" fill="#000072"/>
<path d="M239.724 91.4834C239.724 104.282 234.001 115.741 224.985 123.451C219.897 127.8 215.357 132.714 211.504 138.151L211.34 138.034C209.47 140.477 198.146 140.18 184.944 137.224C171.679 134.257 161.269 129.676 160.704 126.669C160.704 126.546 160.698 126.425 160.687 126.307V126.284C160.291 118.201 159.107 110.175 157.021 102.342C156.036 98.6578 155.54 94.7769 155.61 90.7602C155.989 67.861 174.955 49.3151 197.854 49.4201C220.998 49.525 239.724 68.3154 239.724 91.4834Z" fill="#FEDA24"/>
<path d="M161.666 162.198L162.121 167.77C162.642 174.138 167.362 179.435 173.66 180.509C173.765 180.527 173.872 180.545 173.979 180.561C179.848 181.494 185.66 178.549 188.49 173.323L191.202 168.318L161.666 162.198Z" fill="#5E4C80"/>
<path d="M163.599 164.385L163.864 167.627C164.324 173.263 168.474 177.85 173.953 178.785L174.252 178.835C179.351 179.642 184.458 177.095 186.953 172.491L188.544 169.553L163.599 164.385ZM176.14 182.48C175.332 182.48 174.518 182.417 173.705 182.288C173.589 182.27 173.471 182.251 173.354 182.23C166.31 181.03 160.969 175.142 160.379 167.912L159.923 162.34C159.878 161.791 160.095 161.254 160.508 160.889C160.92 160.524 161.481 160.373 162.021 160.487L191.556 166.607C192.097 166.718 192.553 167.08 192.787 167.582C193.02 168.083 193.002 168.665 192.739 169.151L190.028 174.156C187.224 179.33 181.843 182.48 176.14 182.48Z" fill="#000072"/>
<path d="M197.559 164.292L159.778 155.271C159.778 155.271 157.242 158.843 158.354 162.106C159.166 164.483 166.856 167.828 176.767 170.193C187.2 172.684 193.958 172.815 196.484 170.178C198.159 167.343 197.559 164.292 197.559 164.292Z" fill="#9DA9B9"/>
<path d="M189.701 172.109C186.379 172.109 182.042 171.453 176.767 170.193C171.596 168.959 167.029 167.458 163.729 165.968C162.217 165.284 160.972 164.605 160.055 163.952C159.136 163.299 158.549 162.674 158.354 162.106C158.155 161.52 158.073 160.923 158.071 160.34C158.071 159.701 158.17 159.078 158.318 158.499C163.114 161.032 170.046 163.387 176.649 164.943C184.122 166.704 190.016 167.583 194.503 167.583C195.583 167.583 196.581 167.532 197.5 167.431C197.339 168.292 197.034 169.247 196.484 170.178C195.235 171.482 192.953 172.109 189.701 172.109Z" fill="#6E76A4"/>
<path d="M160.635 157.274C160.081 158.408 159.524 160.12 160.009 161.542C160.482 162.644 166.006 165.827 177.173 168.493C189.791 171.505 193.81 170.237 195.086 169.099C195.757 167.864 195.908 166.573 195.913 165.697L160.635 157.274ZM189.677 173.855C186.238 173.855 181.836 173.201 176.361 171.894C172.144 170.887 158.261 167.247 156.699 162.669C155.314 158.608 158.228 154.434 158.353 154.258C158.765 153.677 159.49 153.403 160.185 153.57L197.965 162.591C198.632 162.75 199.144 163.282 199.276 163.954C199.305 164.106 199.98 167.699 197.991 171.067C197.922 171.184 197.841 171.291 197.748 171.389C196.169 173.035 193.527 173.855 189.677 173.855Z" fill="#000072"/>
<path d="M204.515 155.834L155.966 144.393C155.966 144.393 152.629 149.077 153.965 152.83C154.939 155.563 164.314 160.24 177.05 163.242C190.457 166.401 199.185 166.756 202.535 163.83C204.786 160.651 204.515 155.834 204.515 155.834Z" fill="#9DA9B9"/>
<path d="M156.787 146.384C155.953 147.896 154.952 150.388 155.612 152.243C156.181 153.825 164.182 158.412 177.451 161.539C193.342 165.284 199.167 164.246 201.229 162.641C202.352 160.93 202.668 158.63 202.75 157.214L156.787 146.384ZM194.503 167.583C190.016 167.583 184.122 166.704 176.649 164.943C165.678 162.358 153.799 157.569 152.319 153.416C150.695 148.858 154.384 143.6 154.541 143.38C154.953 142.801 155.674 142.53 156.366 142.691L204.915 154.132C205.669 154.31 206.217 154.963 206.261 155.736C206.274 155.958 206.536 161.204 203.961 164.84C203.881 164.953 203.789 165.055 203.685 165.146C201.827 166.771 198.815 167.583 194.503 167.583Z" fill="#000072"/>
<path d="M204.515 155.834C203.671 159.412 192.121 159.752 178.714 156.592C165.307 153.433 155.122 147.971 155.966 144.394C156.808 140.816 168.36 140.477 181.767 143.634C195.174 146.795 205.358 152.255 204.515 155.834Z" fill="#9DA9B9"/>
<path d="M195.115 156.995C191.145 156.995 185.736 156.451 179.115 154.891C164.452 151.436 157.341 146.182 157.667 144.794C157.8 144.228 159.328 143.64 162.088 143.376C163.378 145.826 171.267 149.089 181.32 151.368C186.685 152.584 191.119 153.218 194.551 153.218C196.74 153.218 198.521 152.961 199.878 152.433C202.411 154.115 202.865 155.213 202.814 155.434C202.635 156.193 199.935 156.995 195.115 156.995Z" fill="#6E76A4"/>
<path d="M165.366 143.233C160.546 143.233 157.846 144.034 157.667 144.794C157.34 146.182 164.452 151.436 179.114 154.891C193.777 158.346 202.487 156.82 202.814 155.434C202.878 155.16 202.162 153.534 197.658 151.117C193.493 148.884 187.706 146.831 181.366 145.337C174.745 143.777 169.335 143.233 165.366 143.233ZM195.075 160.501C190.071 160.501 184.03 159.642 178.313 158.294C165.801 155.347 152.938 149.613 154.263 143.993C155.588 138.372 169.657 138.986 182.167 141.933C188.796 143.495 194.884 145.662 199.31 148.036C204.517 150.828 206.841 153.587 206.217 156.236C205.498 159.288 201.019 160.501 195.075 160.501Z" fill="#000072"/>
<path d="M202.978 144.954L163.39 135.976C163.39 135.976 160.781 139.739 161.983 143.135C162.859 145.61 170.934 149.013 181.32 151.368C192.251 153.848 199.314 153.904 201.924 151.119C203.639 148.136 202.978 144.954 202.978 144.954Z" fill="#9DA9B9"/>
<path d="M194.551 153.218C191.118 153.218 186.684 152.584 181.32 151.368C171.267 149.089 163.378 145.826 162.088 143.376C162.046 143.294 162.01 143.215 161.983 143.135C161.758 142.499 161.666 141.849 161.666 141.214C161.667 140.337 161.841 139.489 162.079 138.739C167.103 141.58 175.039 144.241 182.558 145.923C190.156 147.623 196.186 148.473 200.813 148.473C201.552 148.473 202.253 148.451 202.921 148.408C202.823 148.909 202.679 149.438 202.471 149.974C202.322 150.355 202.143 150.739 201.924 151.119C201.412 151.665 200.729 152.102 199.877 152.433C198.521 152.961 196.74 153.218 194.551 153.218Z" fill="#6E76A4"/>
<path d="M164.265 137.968C163.684 139.172 163.09 141.025 163.63 142.553C164.11 143.709 169.908 146.987 181.707 149.663C194.987 152.675 199.189 151.275 200.514 150.055C201.229 148.71 201.364 147.308 201.352 146.379L164.265 137.968ZM194.527 154.966C190.99 154.966 186.494 154.334 180.934 153.073C176.524 152.074 162.007 148.443 160.334 143.719C158.851 139.527 161.826 135.163 161.952 134.98C162.358 134.394 163.079 134.111 163.776 134.271L203.364 143.249C204.032 143.4 204.551 143.928 204.689 144.598C204.722 144.754 205.463 148.472 203.44 151.99C203.373 152.107 203.293 152.216 203.2 152.314C201.542 154.084 198.705 154.966 194.527 154.966Z" fill="#000072"/>
<path d="M211.142 137.535L160.272 126.156C160.272 126.156 157.251 129.706 158.694 133.611C159.743 136.455 169.594 141.232 182.939 144.217C196.986 147.359 206.112 147.628 209.576 144.529C211.892 141.181 211.142 137.535 211.142 137.535Z" fill="#9DA9B9"/>
<path d="M161.044 128.121C160.429 129.172 159.622 131.078 160.333 133.005C160.946 134.664 169.38 139.391 183.322 142.511C200.024 146.246 206.118 145.073 208.259 143.354C209.309 141.738 209.507 140.031 209.506 138.961L161.044 128.121ZM200.813 148.473C196.186 148.473 190.156 147.623 182.558 145.923C171.083 143.355 158.637 138.511 157.053 134.216C155.277 129.407 158.79 125.2 158.939 125.023C159.36 124.529 160.02 124.307 160.653 124.45L211.523 135.829C212.194 135.979 212.715 136.509 212.854 137.183C212.891 137.361 213.725 141.604 211.015 145.524C210.937 145.636 210.845 145.74 210.742 145.832C208.775 147.592 205.521 148.473 200.813 148.473Z" fill="#000072"/>
<path d="M163.125 126.796C165.26 128.615 172.584 132.17 185.014 134.95C197.44 137.731 205.58 137.634 208.287 136.895C206.153 135.078 198.829 131.524 186.403 128.746C173.975 125.968 165.833 126.06 163.125 126.796ZM203.294 142.026C195.847 142.026 186.594 140.08 183.995 139.499C179.866 138.576 159.202 133.636 157.974 127.099C157.947 126.957 157.933 126.814 157.933 126.669C157.933 126.625 157.932 126.58 157.927 126.539C157.92 126.462 157.917 126.385 157.917 126.308C157.917 126.201 157.923 126.07 157.938 125.964C157.946 125.905 157.956 125.845 157.969 125.784C157.977 125.738 157.986 125.691 157.996 125.647C158.813 121.999 164.438 121.643 168.598 121.691C173.787 121.753 180.471 122.642 187.421 124.196C194.367 125.749 200.791 127.792 205.511 129.946C209.296 131.674 214.231 134.394 213.415 138.042V138.045C213.3 138.557 213.074 139.033 212.748 139.458C211.275 141.38 207.584 142.026 203.294 142.026Z" fill="#000072"/>
<path d="M211.141 137.535C210.477 140.505 198.551 140.365 184.503 137.223C170.457 134.081 159.607 129.126 160.272 126.156C160.936 123.186 172.862 123.327 186.91 126.47C200.956 129.611 211.806 134.566 211.141 137.535Z" fill="white"/>
<path d="M203.381 137.638C199.221 137.638 192.997 137.035 184.95 135.234C170.527 132.008 163.045 127.803 162.295 126.348C162.293 126.297 162.289 126.244 162.285 126.194V126.184C162.272 125.928 162.258 125.672 162.244 125.416C163.075 125.275 164.137 125.206 165.393 125.206C166.6 125.206 167.985 125.27 169.518 125.394C169.268 125.397 169.014 125.398 168.759 125.398C167.182 125.398 165.513 125.355 163.762 125.252C165.102 126.278 167.049 127.649 169.543 129.008C172.163 130.438 176.73 132.589 185.667 134.253C190.265 135.11 196.533 135.931 204.151 135.931C205.447 135.931 206.783 135.907 208.155 135.856C208.288 135.696 208.43 135.526 208.58 135.346C209.114 135.649 209.57 135.939 209.941 136.218C209.704 136.346 209.489 136.528 209.312 136.758C208.791 137.237 206.772 137.638 203.381 137.638Z" fill="#B2B2D4"/>
<path d="M182.22 84.8569C181.346 84.8569 180.634 85.5916 180.319 85.9782C179.147 87.4207 179.405 88.2707 179.49 88.551C180.076 90.4851 183.606 92.231 185.694 92.8761L185.896 92.935C185.613 88.1094 184.208 85.7721 183.076 85.1039C182.779 84.9286 182.491 84.8569 182.22 84.8569ZM205.38 98.3967C209.023 98.9932 213.466 99.015 214.461 97.3049C214.74 96.8249 214.412 96.222 214.259 95.9839C213.674 95.0815 212.335 94.2547 210.66 94.4287C208.794 94.6284 206.97 96.0236 205.38 98.3967ZM194.603 134.223C194.573 134.223 194.545 134.221 194.516 134.22C193.551 134.173 192.808 133.354 192.856 132.388C192.884 131.81 193.62 118.036 199.766 101.837C199.912 101.452 200.061 101.081 200.212 100.721L189.314 97.566C188.803 105.173 186.302 115.658 180.708 129.441C180.345 130.335 179.325 130.767 178.43 130.403C177.535 130.04 177.104 129.021 177.467 128.126C183.427 113.443 185.575 103.316 185.903 96.5779L184.693 96.2271C183.933 95.9942 177.462 93.8975 176.145 89.5711C175.741 88.2438 175.666 86.1599 177.604 83.774C179.595 81.3241 182.44 80.6649 184.856 82.0934C187.416 83.6063 189.281 87.4271 189.409 93.9526L201.789 97.5391C204.816 92.3692 208.272 91.1673 210.289 90.9523C213.058 90.663 215.769 91.8854 217.194 94.0819C218.244 95.7036 218.353 97.5673 217.484 99.0623C214.956 103.409 207.078 102.342 203.629 101.631C203.425 102.095 203.226 102.577 203.035 103.079C197.095 118.732 196.355 132.424 196.347 132.56C196.301 133.496 195.528 134.223 194.603 134.223Z" fill="#000072"/>
<path d="M117.743 41.5954C124.863 41.9282 131.88 46.101 136.865 50.9893C139.064 53.1449 142.291 56.3704 142.359 59.6396C142.436 63.372 139.149 65.0514 135.858 64.6815C129.084 63.9212 122.223 59.8572 117.485 55.0879C115.424 53.0117 112.615 50.005 112.44 46.9356C112.274 43.98 114.787 41.4674 117.743 41.5954Z" fill="#FEDA24"/>
<path d="M117.532 43.6307C116.73 43.6307 115.943 43.9648 115.358 44.5587C114.751 45.1718 114.431 45.9961 114.477 46.8204C114.618 49.3049 117.532 52.2399 118.933 53.6492C123.815 58.5644 130.386 62.0153 136.085 62.6553C137.466 62.8076 138.746 62.4838 139.515 61.7823C140.074 61.2703 140.338 60.583 140.32 59.6806C140.268 57.1808 137.125 54.1011 135.438 52.446C130.087 47.1993 123.438 43.9046 117.653 43.6332C117.613 43.6319 117.572 43.6307 117.532 43.6307ZM136.759 66.7731C136.388 66.7731 136.01 66.7526 135.63 66.7103C128.951 65.9603 121.627 62.1523 116.039 56.5254C113.23 53.6979 110.605 50.5926 110.404 47.0508C110.293 45.0783 111.04 43.1251 112.453 41.6927C113.877 40.2489 115.84 39.4732 117.832 39.5577H117.839C124.699 39.8777 132.155 43.5129 138.294 49.5327C140.545 51.7395 144.312 55.4336 144.398 59.5974C144.442 61.6838 143.704 63.4822 142.266 64.7955C140.86 66.0768 138.898 66.7731 136.759 66.7731Z" fill="#000072"/>
<path d="M167.559 3.34781C173.555 7.19805 177.543 14.3225 179.413 21.0489C180.238 24.0147 181.417 28.423 179.84 31.2876C178.039 34.5568 174.353 34.3673 171.688 32.4C166.204 28.3513 162.298 21.3997 160.583 14.8998C159.838 12.071 158.908 8.06203 160.295 5.31771C161.628 2.67451 165.061 1.75805 167.559 3.34781Z" fill="#FEDA24"/>
<path d="M164.848 4.60471C164.569 4.60471 164.286 4.64181 164.01 4.71861C163.178 4.94645 162.488 5.50073 162.115 6.23801C160.994 8.45881 162.049 12.4575 162.556 14.3788C164.323 21.0771 168.286 27.3529 172.9 30.759C174.017 31.5833 175.29 31.943 176.307 31.719C177.048 31.5564 177.619 31.093 178.054 30.3033C179.261 28.1119 178.082 23.8725 177.448 21.5954C175.44 14.3762 171.334 8.19769 166.461 5.06681C165.981 4.76217 165.421 4.60471 164.848 4.60471ZM175.682 35.8636C173.923 35.8636 172.09 35.2313 170.477 34.0409C165.069 30.0498 160.634 23.0879 158.611 15.4194C157.594 11.5666 156.874 7.56533 158.474 4.39861C159.364 2.63477 160.989 1.31639 162.929 0.783912C164.884 0.246312 166.972 0.554802 168.655 1.62616L168.661 1.63126C174.44 5.34198 179.075 12.2207 181.379 20.5036C182.224 23.5398 183.637 28.6226 181.628 32.2706C180.621 34.0998 179.083 35.2863 177.18 35.7036C176.692 35.8111 176.19 35.8636 175.682 35.8636Z" fill="#000072"/>
<path d="M249.196 19.9289C247.68 26.8921 242.395 33.1154 236.744 37.2153C234.253 39.0239 230.533 41.6671 227.299 41.1884C223.606 40.6418 222.499 37.1205 223.411 33.9372C225.292 27.3849 230.442 21.2984 235.936 17.4226C238.326 15.7368 241.76 13.4674 244.814 13.8092C247.757 14.1369 249.815 17.0348 249.196 19.9289Z" fill="#FEDA24"/>
<path d="M244.181 15.8137C241.757 15.8137 238.649 18.0063 237.113 19.0905C231.453 23.0828 226.955 28.9874 225.373 34.5004C224.99 35.8329 225.097 37.1525 225.662 38.0268C226.073 38.6642 226.706 39.0393 227.599 39.1711C230.07 39.5321 233.634 36.9529 235.546 35.5641C241.612 31.1647 245.968 25.1589 247.202 19.5001C247.378 18.6732 247.185 17.7913 246.673 17.0809C246.169 16.3807 245.41 15.9276 244.588 15.8354C244.455 15.8213 244.319 15.8137 244.181 15.8137ZM228.082 43.285C227.721 43.285 227.36 43.2607 227.001 43.207C224.936 42.901 223.286 41.8745 222.232 40.2361C221.023 38.3596 220.739 35.8585 221.451 33.3753C223.304 26.9138 228.281 20.3269 234.76 15.7561C238.016 13.4597 241.521 11.3862 245.041 11.7804C247.006 12.0006 248.807 13.063 249.983 14.695C251.168 16.3398 251.609 18.4031 251.192 20.3551L251.19 20.3628C249.728 27.0738 244.9 33.8181 237.942 38.8665C235.614 40.5561 231.853 43.285 228.082 43.285Z" fill="#000072"/>
<path d="M284.661 69.5506C279.927 74.878 272.272 77.7145 265.337 78.5209C262.279 78.8754 257.741 79.3593 255.155 77.3574C252.204 75.0713 252.963 71.4591 255.319 69.1308C260.168 64.3397 267.641 61.557 274.329 60.8697C277.238 60.5714 281.343 60.2758 283.839 62.069C286.244 63.797 286.618 67.3298 284.661 69.5506Z" fill="#FEDA24"/>
<path d="M277.97 62.6822C276.654 62.6822 275.395 62.8115 274.537 62.8998C267.647 63.6076 260.832 66.5516 256.753 70.5823C255.766 71.5564 255.214 72.7596 255.277 73.799C255.323 74.5555 255.692 75.1929 256.405 75.7446C258.382 77.2755 262.754 76.7673 265.101 76.4947C272.546 75.6281 279.286 72.5279 283.134 68.1977C283.691 67.5641 283.954 66.7014 283.856 65.8323C283.76 64.9747 283.319 64.2079 282.649 63.7254C281.504 62.9023 279.688 62.6822 277.97 62.6822ZM260.976 80.8838C258.498 80.8838 255.861 80.4831 253.908 78.9702C252.256 77.6927 251.322 75.9891 251.204 74.0447C251.07 71.8163 252.048 69.4956 253.886 67.6793C258.667 62.9561 266.231 59.6511 274.12 58.8409C278.083 58.4351 282.147 58.3417 285.029 60.4115C286.635 61.566 287.684 63.3734 287.911 65.374C288.137 67.3875 287.511 69.4022 286.19 70.8998L286.185 70.9049C281.625 76.0402 274.111 79.5539 265.572 80.5471C264.297 80.6943 262.674 80.8838 260.976 80.8838Z" fill="#000072"/>
<path d="M162.295 126.348C163.045 127.803 170.527 132.008 184.95 135.234C199.557 138.503 208.152 137.826 209.312 136.758C209.489 136.528 209.704 136.346 209.941 136.218C213.713 131.024 218.177 126.21 223.219 121.901C232.133 114.279 237.244 103.192 237.244 91.4834C237.244 69.5148 219.373 51.5602 197.406 51.4604C197.344 51.4604 197.281 51.4604 197.22 51.4604C175.5 51.4604 157.569 69.0668 157.21 90.7948C157.144 94.5337 157.596 98.2418 158.551 101.814C160.616 109.566 161.871 117.763 162.285 126.184V126.194C162.289 126.244 162.293 126.297 162.295 126.348ZM203.36 141.714C195.558 141.714 185.681 139.578 184.059 139.215C181.548 138.653 159.48 133.538 158.259 127.046C158.236 126.922 158.225 126.796 158.225 126.669C158.225 126.616 158.222 126.561 158.217 126.509C158.212 126.453 158.208 126.395 158.207 126.339C157.806 118.221 156.597 110.324 154.61 102.866C153.557 98.9292 153.059 94.8434 153.13 90.7257C153.527 66.7845 173.288 47.3798 197.22 47.3798C197.289 47.3798 197.354 47.381 197.423 47.381C221.631 47.4898 241.325 67.2748 241.325 91.4834C241.325 104.386 235.692 116.603 225.871 125.002C220.841 129.301 216.419 134.122 212.728 139.331C212.454 139.716 212.056 139.994 211.603 140.118C209.861 141.295 206.814 141.713 203.36 141.714Z" fill="#000072"/>
<path d="M210.647 132.844C209.114 131.684 207.198 130.717 205.511 129.946C203.068 128.831 200.169 127.746 196.978 126.744C197.24 124.902 197.605 122.687 198.112 120.202C206.063 117.27 215.093 112.46 222.433 104.529C226.299 100.354 228.065 97.0745 228.845 95.495C232.81 87.4527 232.726 79.7292 232.342 75.5334C233.671 79.1903 237.64 91.4373 233.07 104.335C231.712 108.167 230.17 112.523 226.222 116.477C223.343 119.361 221.293 119.921 217.462 124.362C216.275 125.736 215.886 126.362 212.817 130.174C212.038 131.14 211.31 132.035 210.647 132.844ZM193.575 125.738C191.593 125.185 189.531 124.667 187.42 124.196C186.735 124.043 186.052 123.896 185.374 123.756C187.873 123.265 190.924 122.552 194.279 121.505C193.991 123.052 193.76 124.47 193.575 125.738Z" fill="#B1983C"/>
<path d="M209.161 134.648C206.74 132.867 202.289 130.884 196.672 129.092C196.754 128.399 196.854 127.613 196.978 126.744C200.169 127.746 203.068 128.831 205.511 129.946C207.198 130.717 209.114 131.684 210.647 132.844C210.107 133.505 209.608 134.109 209.161 134.648ZM193.261 128.07C191.245 127.501 189.116 126.962 186.91 126.47C185.325 126.115 183.767 125.799 182.251 125.521C182.414 125.089 182.577 124.658 182.734 124.232C183.523 124.103 184.407 123.945 185.374 123.756C186.052 123.896 186.736 124.043 187.42 124.196C189.531 124.667 191.593 125.185 193.575 125.738C193.451 126.585 193.347 127.366 193.261 128.07ZM178.732 124.934C178.569 124.909 178.405 124.885 178.244 124.862C178.427 124.84 178.608 124.82 178.783 124.798C178.766 124.843 178.748 124.888 178.732 124.934Z" fill="#000072"/>
<path d="M208.58 135.346C206.057 133.926 201.787 132.286 196.497 130.718C196.542 130.255 196.6 129.711 196.672 129.092C202.289 130.884 206.74 132.867 209.161 134.648C208.957 134.895 208.762 135.128 208.58 135.346ZM193.072 129.752C190.997 129.195 188.806 128.655 186.534 128.146C184.862 127.773 183.222 127.432 181.63 127.128C181.841 126.586 182.048 126.051 182.251 125.521C183.768 125.799 185.325 126.115 186.91 126.47C189.117 126.962 191.245 127.501 193.261 128.07C193.186 128.69 193.123 129.254 193.072 129.752ZM178.12 126.499C174.948 125.971 172.035 125.601 169.519 125.394C172.903 125.365 175.84 125.137 178.244 124.862C178.406 124.885 178.569 124.909 178.732 124.934C178.532 125.45 178.329 125.971 178.12 126.499Z" fill="#B2B2D4"/>
<path d="M204.151 135.932C196.533 135.932 190.265 135.11 185.667 134.253C176.73 132.589 172.163 130.438 169.543 129.008C167.049 127.649 165.102 126.278 163.762 125.252C165.513 125.355 167.182 125.398 168.759 125.398C169.014 125.398 169.267 125.397 169.518 125.395C172.035 125.601 174.948 125.971 178.12 126.499C177.907 127.034 177.69 127.577 177.467 128.126C177.104 129.021 177.535 130.04 178.43 130.403C178.645 130.49 178.867 130.532 179.088 130.532C179.778 130.532 180.432 130.12 180.708 129.441C181.024 128.659 181.331 127.888 181.63 127.128C183.222 127.432 184.862 127.773 186.533 128.147C188.805 128.655 190.997 129.195 193.072 129.752C192.912 131.316 192.862 132.248 192.855 132.388C192.808 133.354 193.55 134.173 194.515 134.22C194.545 134.221 194.573 134.223 194.603 134.223C195.528 134.223 196.301 133.496 196.347 132.56C196.348 132.532 196.384 131.879 196.497 130.718C201.787 132.286 206.057 133.926 208.58 135.347C208.43 135.526 208.288 135.696 208.155 135.856C206.783 135.907 205.447 135.932 204.151 135.932Z" fill="#7C7CB6"/>
<path d="M194.602 134.223C194.573 134.223 194.545 134.221 194.515 134.22C193.55 134.173 192.808 133.354 192.855 132.388C192.861 132.248 192.911 131.316 193.071 129.752C193.123 129.254 193.185 128.69 193.261 128.07C193.347 127.366 193.45 126.585 193.574 125.738C193.76 124.47 193.99 123.052 194.278 121.505C195.519 121.118 196.801 120.685 198.112 120.202C197.605 122.687 197.24 124.902 196.978 126.744C196.854 127.613 196.754 128.399 196.672 129.092C196.599 129.711 196.541 130.255 196.497 130.718C196.384 131.879 196.348 132.532 196.347 132.56C196.301 133.496 195.528 134.223 194.602 134.223ZM179.087 130.532C178.867 130.532 178.644 130.49 178.429 130.403C177.535 130.04 177.103 129.021 177.467 128.126C177.69 127.577 177.907 127.034 178.12 126.499C178.328 125.97 178.532 125.45 178.732 124.934C178.748 124.888 178.766 124.843 178.783 124.798C179.219 124.746 179.635 124.69 180.033 124.637C180.719 124.543 181.632 124.414 182.734 124.232C182.577 124.658 182.414 125.089 182.25 125.521C182.048 126.051 181.841 126.586 181.629 127.128C181.331 127.888 181.024 128.659 180.708 129.441C180.431 130.12 179.777 130.532 179.087 130.532Z" fill="#000072"/>
<path d="M167.218 84.1376C166.874 84.1376 166.539 84.0749 166.222 83.9302C164.62 83.1968 164.334 80.7212 164.237 79.8764C163.444 72.99 169.85 66.9126 171.874 64.9939C173.993 62.983 176.269 61.6992 180.821 59.1302C183.408 57.6697 184.869 57.1987 186.673 57.1987C186.71 57.1987 186.747 57.1987 186.784 57.1987C188.898 57.2217 191.126 58.416 191.752 60.4358C192.448 62.6848 190.964 65.1014 189.032 66.448C187.1 67.7945 184.766 68.4089 182.642 69.4265C179.458 70.9523 176.735 73.4278 174.914 76.4524C173.384 78.992 173.568 80.0748 171.716 81.8041C171.38 82.119 169.173 84.1376 167.218 84.1376Z" fill="#FFF4BD"/>
<path d="M198.596 62.8051C198.497 62.8051 198.398 62.8012 198.299 62.7935C196.78 62.6809 195.163 61.502 194.793 59.7036C194.436 57.9666 195.415 56.382 196.644 55.5718C197.351 55.1046 198.166 54.878 198.971 54.878C199.774 54.878 200.567 55.102 201.239 55.5334C202.489 56.3334 203.419 57.9142 203.129 59.3708C203.021 59.9046 202.779 60.2617 202.572 60.574C201.692 61.8911 200.17 62.8051 198.596 62.8051Z" fill="#FFF4BD"/>
</svg>
