<?xml version="1.0" encoding="UTF-8"?>
<!DOCTYPE svg PUBLIC "-//W3C//DTD SVG 1.1//EN" "http://www.w3.org/Graphics/SVG/1.1/DTD/svg11.dtd">
<svg xmlns="http://www.w3.org/2000/svg" version="1.1" width="512px" height="512px" style="shape-rendering:geometricPrecision; text-rendering:geometricPrecision; image-rendering:optimizeQuality; fill-rule:evenodd; clip-rule:evenodd" xmlns:xlink="http://www.w3.org/1999/xlink">
<g><path style="opacity:0.981" fill="#231e1f" d="M 234.5,23.5 C 333.125,19.2192 407.959,58.8858 459,142.5C 479.86,179.598 488.86,219.264 486,261.5C 482.744,263.429 479.244,263.929 475.5,263C 473.667,262.5 472.5,261.333 472,259.5C 468.944,170.152 428.444,104.318 350.5,62C 271.882,26.997 197.215,33.997 126.5,83C 126.167,83.3333 125.833,83.6667 125.5,84C 131.392,105.217 124.059,119.55 103.5,127C 86.7073,130.185 74.2073,124.352 66,109.5C 59.9143,92.7743 63.7477,78.941 77.5,68C 90.4813,61.6038 103.148,62.1038 115.5,69.5C 151.052,43.5378 190.719,28.2045 234.5,23.5 Z"/></g>
<g><path style="opacity:1" fill="#fae259" d="M 105.5,83.5 C 103.833,96.5 96.5,103.833 83.5,105.5C 76.4407,94.585 78.7741,86.085 90.5,80C 96.2246,78.6765 101.225,79.8432 105.5,83.5 Z"/></g>
<g><path style="opacity:0.994" fill="#232021" d="M 371.5,132.5 C 369.745,133.072 368.078,133.906 366.5,135C 364.833,135.667 363.167,135.667 361.5,135C 352.188,127.341 342.188,120.674 331.5,115C 327.301,115.197 324.968,117.53 324.5,122C 325.661,126.156 327.495,129.989 330,133.5C 331.569,142.027 330.235,150.027 326,157.5C 321.667,161.833 317.333,166.167 313,170.5C 309.224,178.183 310.057,185.35 315.5,192C 327.508,199.007 338.675,207.174 349,216.5C 355.946,228.268 356.279,240.268 350,252.5C 338.363,265.138 326.363,277.471 314,289.5C 308.77,298.51 310.27,306.343 318.5,313C 326.5,318 334.5,323 342.5,328C 345.893,330.076 349.56,331.242 353.5,331.5C 359.194,332.968 364.861,332.468 370.5,330C 379.132,328.398 386.965,330.231 394,335.5C 418.368,291.202 422.034,245.202 405,197.5C 398.991,182.374 390.824,168.707 380.5,156.5C 377.563,151.871 377.896,147.538 381.5,143.5C 386.176,140.663 390.343,141.33 394,145.5C 435.039,201.791 442.706,262.458 417,327.5C 387.669,387.477 339.836,421.977 273.5,431C 197.803,435.573 140.303,405.739 101,341.5C 78.0858,298.182 73.0858,252.848 86,205.5C 102.996,152.17 137.163,114.336 188.5,92C 255.014,67.8365 315.848,77.6698 371,121.5C 372.747,125.125 372.914,128.792 371.5,132.5 Z"/></g>
<g><path style="opacity:1" fill="#e4c94c" d="M 105.5,83.5 C 112.037,89.4615 113.204,96.4615 109,104.5C 104.291,110.77 98.124,112.936 90.5,111C 87.4048,110.065 85.0714,108.231 83.5,105.5C 96.5,103.833 103.833,96.5 105.5,83.5 Z"/></g>
<g><path style="opacity:1" fill="#5fb7fc" d="M 345.5,346.5 C 327.54,365.546 306.206,378.546 281.5,385.5C 281.66,383.801 281.494,382.134 281,380.5C 279.293,378.963 277.793,377.296 276.5,375.5C 277.833,370.167 277.833,364.833 276.5,359.5C 279.197,357.296 280.863,354.463 281.5,351C 276.068,339.571 267.402,331.571 255.5,327C 247.287,325.184 239.954,326.851 233.5,332C 225.06,342.227 216.393,352.227 207.5,362C 205.167,362.667 202.833,362.667 200.5,362C 193.663,357.747 186.663,353.747 179.5,350C 171.612,347.32 164.279,348.32 157.5,353C 152.572,357.704 148.238,362.871 144.5,368.5C 143.998,369.521 143.332,369.688 142.5,369C 127.601,353.877 115.934,336.544 107.5,317C 116.764,318.312 126.097,318.978 135.5,319C 147.198,316.304 154.698,309.137 158,297.5C 157.667,289.167 157.333,280.833 157,272.5C 159.304,268.203 162.304,264.536 166,261.5C 166.722,258.739 166.555,256.073 165.5,253.5C 169.221,251.646 172.554,249.313 175.5,246.5C 176.962,247.458 178.295,248.624 179.5,250C 186.638,248.085 193.971,247.418 201.5,248C 212.47,251.492 223.47,254.825 234.5,258C 252.49,259.516 262.49,251.349 264.5,233.5C 261.168,220.834 255.668,209.167 248,198.5C 242.609,193.447 236.443,189.614 229.5,187C 215.145,184.774 200.812,182.441 186.5,180C 177.343,179.842 173.843,175.342 176,166.5C 182.626,161.543 188.96,156.209 195,150.5C 203.476,134.259 199.643,121.759 183.5,113C 220.976,93.9801 259.976,90.3134 300.5,102C 305.243,103.47 309.909,105.136 314.5,107C 307.979,114.685 306.812,123.185 311,132.5C 314.082,135.979 315.415,139.979 315,144.5C 311.368,149.134 307.368,153.467 303,157.5C 293.377,169.58 292.044,182.58 299,196.5C 301.128,199.63 303.628,202.463 306.5,205C 316.609,211.444 326.443,218.277 336,225.5C 339.333,231.833 339.333,238.167 336,244.5C 323.637,256.529 311.637,268.862 300,281.5C 294.04,293.152 294.04,304.819 300,316.5C 301.793,319.295 303.96,321.795 306.5,324C 318.906,332.536 331.906,340.036 345.5,346.5 Z"/></g>
<g><path style="opacity:1" fill="#42ca8d" d="M 371.5,132.5 C 374.833,136.167 378.167,139.833 381.5,143.5C 377.896,147.538 377.563,151.871 380.5,156.5C 405.873,217.361 399.706,274.694 362,328.5C 359.804,331.125 356.97,332.125 353.5,331.5C 349.56,331.242 345.893,330.076 342.5,328C 334.5,323 326.5,318 318.5,313C 310.27,306.343 308.77,298.51 314,289.5C 326.363,277.471 338.363,265.138 350,252.5C 356.279,240.268 355.946,228.268 349,216.5C 338.675,207.174 327.508,199.007 315.5,192C 310.057,185.35 309.224,178.183 313,170.5C 317.333,166.167 321.667,161.833 326,157.5C 330.235,150.027 331.569,142.027 330,133.5C 327.495,129.989 325.661,126.156 324.5,122C 324.968,117.53 327.301,115.197 331.5,115C 342.188,120.674 352.188,127.341 361.5,135C 363.167,135.667 364.833,135.667 366.5,135C 368.078,133.906 369.745,133.072 371.5,132.5 Z"/></g>
<g><path style="opacity:1" fill="#42c98d" d="M 175.5,246.5 C 172.554,249.313 169.221,251.646 165.5,253.5C 162.66,250.857 159.327,250.024 155.5,251C 147.593,255.644 142.76,262.477 141,271.5C 140.41,279.615 140.743,287.615 142,295.5C 139.737,301.053 135.57,303.72 129.5,303.5C 120.037,302.479 110.704,300.812 101.5,298.5C 85.1971,227.566 105.53,169.733 162.5,125C 163.5,124.5 164.5,124 165.5,123.5C 170.5,125.667 175.5,127.833 180.5,130C 183.769,133.453 184.269,137.286 182,141.5C 175.374,146.457 169.04,151.791 163,157.5C 158.43,166.458 158.43,175.458 163,184.5C 165.921,188.092 169.421,190.925 173.5,193C 190.09,196.432 206.756,199.432 223.5,202C 229.412,203.538 234.245,206.705 238,211.5C 242.059,218.949 245.559,226.616 248.5,234.5C 248.096,239.737 245.263,242.403 240,242.5C 228.785,239.54 217.619,236.373 206.5,233C 195.312,229.716 185.145,231.549 176,238.5C 175.503,241.146 175.336,243.813 175.5,246.5 Z"/></g>
<g><path style="opacity:1" fill="#3cbd7f" d="M 380.5,156.5 C 390.824,168.707 398.991,182.374 405,197.5C 422.034,245.202 418.368,291.202 394,335.5C 386.965,330.231 379.132,328.398 370.5,330C 364.861,332.468 359.194,332.968 353.5,331.5C 356.97,332.125 359.804,331.125 362,328.5C 399.706,274.694 405.873,217.361 380.5,156.5 Z"/></g>
<g><path style="opacity:0.981" fill="#231e1f" d="M 27.5,247.5 C 30.1873,247.336 32.854,247.503 35.5,248C 37.3333,248.5 38.5,249.667 39,251.5C 41.4035,332.173 75.9035,394.673 142.5,439C 217.067,481.332 291.734,481.665 366.5,440C 373.007,435.914 379.34,431.58 385.5,427C 379.608,405.783 386.941,391.45 407.5,384C 427.175,381.025 440.341,388.859 447,407.5C 449.167,436 436,449.167 407.5,447C 403.111,445.971 399.111,444.138 395.5,441.5C 321.282,493.061 242.282,501.561 158.5,467C 75.1994,425.282 30.1994,357.782 23.5,264.5C 23.6667,260.167 23.8333,255.833 24,251.5C 24.6897,249.65 25.8564,248.316 27.5,247.5 Z"/></g>
<g><path style="opacity:1" fill="#42c98d" d="M 276.5,359.5 C 277.833,364.833 277.833,370.167 276.5,375.5C 273.68,375.248 271.014,375.748 268.5,377C 263.623,382.373 258.956,387.873 254.5,393.5C 221.111,398.827 189.111,394.494 158.5,380.5C 157.702,380.043 157.369,379.376 157.5,378.5C 159.99,374.862 162.49,371.195 165,367.5C 168.453,364.231 172.286,363.731 176.5,366C 182.5,369.667 188.5,373.333 194.5,377C 202.988,379.707 210.988,378.707 218.5,374C 227.5,363.667 236.5,353.333 245.5,343C 248.167,342.333 250.833,342.333 253.5,343C 259.167,347.333 264.167,352.333 268.5,358C 271.014,359.252 273.68,359.752 276.5,359.5 Z"/></g>
<g><path style="opacity:1" fill="#52abe8" d="M 281.5,385.5 C 306.206,378.546 327.54,365.546 345.5,346.5C 355.698,347.949 365.865,347.616 376,345.5C 379.553,345.684 382.719,346.85 385.5,349C 355.907,388.713 316.407,410.213 267,413.5C 266.333,410.167 266.333,406.833 267,403.5C 272.456,397.89 277.29,391.89 281.5,385.5 Z"/></g>
<g><path style="opacity:1" fill="#3cbb7e" d="M 157.5,378.5 C 157.369,379.376 157.702,380.043 158.5,380.5C 189.111,394.494 221.111,398.827 254.5,393.5C 250.835,400.313 249.502,407.646 250.5,415.5C 214.735,414.27 183.068,402.437 155.5,380C 156.044,379.283 156.711,378.783 157.5,378.5 Z"/></g>
<g><path style="opacity:1" fill="#fae259" d="M 425.5,403.5 C 423.833,416.5 416.5,423.833 403.5,425.5C 396.441,414.585 398.774,406.085 410.5,400C 416.225,398.676 421.225,399.843 425.5,403.5 Z"/></g>
<g><path style="opacity:1" fill="#e4c94c" d="M 425.5,403.5 C 432.037,409.461 433.204,416.461 429,424.5C 424.291,430.77 418.124,432.936 410.5,431C 407.734,429.629 405.401,427.796 403.5,425.5C 416.5,423.833 423.833,416.5 425.5,403.5 Z"/></g>
</svg>
