<svg width="135 " height="180" viewBox="0 0 2244 2977" fill="none" xmlns="http://www.w3.org/2000/svg">
<path d="M599.718 1961.13C598.386 1960.7 597.056 1960.25 595.725 1959.79L469.026 1917.43C469.026 1917.43 476.906 1908.4 489.127 1894.36C468.807 1875.18 449.633 1852.34 432.236 1825.46C339.903 1696.25 256.431 1558.17 187.116 1405.9C127.322 1265.61 240.96 1114.54 363.004 1141.96L537.608 973.991L642.051 1158.01L467.446 1325.98C432.319 1375.05 554.835 1588.62 623.119 1640.77C629.52 1644.59 635.767 1646.74 641.891 1647.52C649.057 1597.38 656.492 1543 656.492 1543L778.343 1583.33C789.326 1585.06 800.129 1588.66 810.461 1593.96L810.555 1594L810.549 1594.01C844.55 1611.48 873.45 1646.78 886.911 1690.12C940.553 1889.98 766.441 2014.39 600.498 1961.37L600.488 1961.39L599.718 1961.13Z" fill="#3D39E5"/>
<path d="M678.303 1993.64C741.987 1993.64 802.744 1970.83 847.776 1927.87C910.339 1868.18 931.643 1779.64 906.226 1684.94C906.158 1684.69 906.087 1684.44 906.009 1684.19C891.375 1637.06 859.385 1596.88 820.347 1576.55C819.89 1576.3 819.422 1576.06 818.943 1575.84C807.378 1569.98 795.344 1565.95 783.142 1563.85L662.776 1524.01C657.134 1522.15 650.95 1522.88 645.908 1526.03C640.864 1529.17 637.48 1534.4 636.677 1540.29C636.675 1540.3 631.723 1576.51 626.01 1617.05C595.976 1589.43 555.658 1532.65 524.201 1472.9C483.237 1395.1 477.238 1350.29 483.054 1338.72L655.915 1172.42C662.504 1166.08 663.957 1156.09 659.443 1148.13L555 964.118C551.953 958.747 546.594 955.087 540.483 954.199C534.37 953.315 528.193 955.298 523.74 959.577L356.552 1120.42C300.031 1111.91 242.768 1135.59 201.493 1185.14C148.366 1248.93 135.807 1336.53 168.717 1413.74C233.993 1557.15 314.716 1695.36 415.697 1836.72C429.579 1858.12 445.023 1877.76 461.759 1895.32L453.959 1904.27C449.56 1909.31 447.97 1916.21 449.723 1922.67C451.476 1929.12 456.339 1934.27 462.682 1936.39L589.381 1978.76C590.685 1979.2 592.074 1979.67 593.463 1980.13L594.142 1980.35C594.538 1980.48 594.935 1980.6 595.331 1980.71C622.851 1989.4 650.847 1993.64 678.303 1993.64ZM867.693 1695.68C889.368 1776.84 872.493 1849.01 820.164 1898.93C766.097 1950.51 684.258 1967.13 606.585 1942.31C606.37 1942.25 606.155 1942.18 605.94 1942.12C605.923 1942.11 605.906 1942.11 605.886 1942.1C604.641 1941.7 603.398 1941.28 602.153 1940.85L503.799 1907.97L504.214 1907.49C511.26 1899.39 510.662 1887.18 502.857 1879.82C483.04 1861.11 464.93 1839.17 449.026 1814.6C448.86 1814.34 448.687 1814.09 448.508 1813.84C348.923 1674.47 269.375 1538.33 205.32 1397.62C173.245 1322.35 198.157 1251.65 232.229 1210.74C266.343 1169.78 313.579 1151.37 358.621 1161.48C365.179 1162.95 372.034 1161.04 376.871 1156.38L532.923 1006.25L616.988 1154.37L453.582 1311.57C452.698 1312.42 451.895 1313.34 451.185 1314.34C424.671 1351.38 457.01 1431.15 488.807 1491.54C520.289 1551.33 570.274 1625.57 610.98 1656.66C611.583 1657.12 612.21 1657.55 612.862 1657.94C621.4 1663.04 630.316 1666.2 639.366 1667.36C650.218 1668.71 660.142 1661.16 661.69 1650.34C665.894 1620.93 670.191 1590.06 673.028 1569.54L772.059 1602.32C773.094 1602.66 774.156 1602.92 775.235 1603.09C784.039 1604.48 792.82 1607.39 801.331 1611.76C801.429 1611.81 801.529 1611.86 801.629 1611.91C831.408 1627.31 856.076 1658.59 867.693 1695.68Z" fill="#020174"/>
<path d="M281.634 1776.15C456.66 2046.58 809.638 1914.34 736.28 1640.93C736.298 1640.84 736.33 1640.89 736.33 1640.89L736.297 1640.84C705.718 1542.33 595.466 1485.28 526.704 1584.78C509.86 1600.59 491.824 1603.02 472.474 1591.46C404.184 1539.3 281.68 1325.76 316.831 1276.65L392.393 1204.01L491.444 1108.71L386.989 924.701L233.718 1072.15C233.4 1072.43 233.232 1072.61 233.232 1072.61L212.376 1092.64C103.963 1068.3 2.24204 1184.73 22.738 1309.39C25.288 1325.07 29.8379 1340.89 36.5239 1356.6C105.803 1508.87 189.289 1646.98 281.634 1776.15Z" fill="#5F53F9"/>
<path d="M281.634 1776.15C456.66 2046.58 809.638 1914.34 736.28 1640.93C735.486 1645.85 700.788 1849.14 519.502 1857.9C335.998 1866.74 73.465 1444.75 39.075 1329.58C36.004 1319.35 30.3531 1312.7 22.7371 1309.39C25.2871 1325.07 29.8369 1340.89 36.5229 1356.6C105.803 1508.87 189.289 1646.98 281.634 1776.15Z" fill="#3D39E5"/>
<path d="M356.157 1078.53C405.918 1149.92 387.953 1203.19 387.953 1203.19C387.953 1203.19 389.52 1203.53 392.393 1204.01L491.444 1108.71L386.989 924.699L233.718 1072.15C240.263 1066.56 308.848 1010.59 356.157 1078.53Z" fill="#3D39E5"/>
<path d="M528.013 1943.93C565.171 1943.93 600.406 1936.3 630.921 1922.73C740.416 1874.05 789.361 1761.36 755.613 1635.63C755.545 1635.38 755.474 1635.13 755.396 1634.88C735.579 1571.07 685.33 1522.53 630.359 1514.12C584.873 1507.16 542.759 1527.52 511.565 1571.5C502.019 1579.9 494.238 1580.81 483.709 1574.84C453.15 1550.95 408.055 1489.05 373.589 1423.59C332.627 1345.8 326.629 1300.99 332.442 1289.41L505.303 1123.11C511.892 1116.77 513.345 1106.78 508.831 1098.82L404.39 914.808C401.343 909.437 395.984 905.777 389.873 904.889C383.752 903.995 377.581 905.988 373.132 910.267L205.94 1071.11C149.429 1062.6 92.1557 1086.27 50.8807 1135.83C-2.24626 1199.62 -14.8054 1287.22 18.1046 1364.43C83.3806 1507.84 164.101 1646.05 265.085 1787.41C337.908 1899.68 438.541 1943.93 528.013 1943.93ZM717.083 1646.38C745.242 1751.89 705.071 1845.99 614.671 1886.18C525.648 1925.75 388.712 1904.8 298.414 1765.29C298.248 1765.03 298.075 1764.78 297.896 1764.53C198.309 1625.16 118.76 1489.02 54.7076 1348.31C22.6326 1273.04 47.5446 1202.35 81.6166 1161.43C115.736 1120.47 162.996 1102.06 208.009 1112.17C214.567 1113.64 221.42 1111.73 226.259 1107.07L382.311 956.943L466.376 1105.06L302.97 1262.26C302.086 1263.11 301.283 1264.04 300.573 1265.03C274.059 1302.07 306.398 1381.84 338.195 1442.23C369.677 1502.02 419.662 1576.26 460.368 1607.35C460.969 1607.81 461.598 1608.24 462.248 1608.62C489.157 1624.7 516.899 1621.41 540.373 1599.36C541.403 1598.39 542.326 1597.32 543.129 1596.16C565.602 1563.66 593.671 1548.95 624.308 1553.66C663.761 1559.7 701.864 1597.8 717.083 1646.38Z" fill="#020174"/>
<path d="M151.266 512.073L376.272 859.726L1043.03 428.188L818.027 80.5352C785.325 42.0842 738.153 23.6552 684.122 20.5392C619.526 16.7992 544.921 34.8132 472.893 66.5802C438.119 81.9092 403.947 100.474 371.796 121.282L371.195 121.671C315.006 158.038 262.706 202.829 221.708 251.25C178.507 302.304 147.959 357.32 138.797 410.574C132.775 445.735 136.114 480.098 151.266 512.073Z" fill="#ADBAE0"/>
<path d="M138.796 410.573L313.498 680.503L420.492 558.389L221.707 251.25C178.506 302.303 147.958 357.319 138.796 410.573Z" fill="#7991CC"/>
<g opacity="0.68">
<path d="M472.893 66.5792L807.842 584.102C813.404 579.082 818.962 574.276 824.536 569.602C856.619 542.869 889.274 521.521 921.24 507.014C943.285 496.939 965.02 490.12 986.01 486.98L684.122 20.5382C619.525 16.7982 544.921 34.8132 472.893 66.5792Z" fill="white"/>
</g>
<path d="M376.313 879.731C380.036 879.731 383.801 878.693 387.16 876.518C396.432 870.517 399.086 858.134 393.083 848.862L168.811 502.346C115.981 388.257 235.845 233.108 382.068 138.469L382.708 138.054C528.919 43.4301 719.546 -2.37788 801.993 92.5411L1026.26 439.06C1032.26 448.332 1044.64 450.991 1053.92 444.983C1063.19 438.982 1065.85 426.599 1059.84 417.327L834.832 69.6661C834.356 68.9311 833.831 68.2261 833.265 67.5591C731.832 -51.4449 517.33 3.28211 360.96 104.485L360.32 104.9C203.963 206.096 66.1892 379.368 133.213 520.642C133.589 521.436 134.016 522.202 134.492 522.937L359.504 870.596C363.332 876.511 369.756 879.731 376.313 879.731Z" fill="#020174"/>
<path d="M2028.61 2850.82L2101.31 2896.07C2101.31 2896.07 2145.33 2986.04 2201.82 2949.47C2258.36 2912.88 2194.31 2835.88 2194.31 2835.88L2182.81 2751.02L2175.95 2701.89C2077.68 2689.38 2015.05 2731.83 1988.06 2829.46L2028.61 2850.82Z" fill="#D7E0F4"/>
<path d="M2201.82 2949.48C2258.36 2912.88 2194.31 2835.88 2194.31 2835.88C2194.31 2835.88 2174.01 2833.17 2140.07 2854.07C2107.16 2876.44 2101.31 2896.07 2101.31 2896.07C2101.31 2896.07 2145.33 2986.04 2201.82 2949.48Z" fill="#020174"/>
<g opacity="0.68">
<path d="M2203.25 2862.36C2203.25 2862.36 2164.62 2842.61 2167.91 2887.4C2171.21 2932.19 2220.89 2928.68 2215.64 2892.68C2210.39 2856.69 2203.25 2862.36 2203.25 2862.36Z" fill="white"/>
</g>
<path d="M365.473 915.39L1378.97 2481.33C1384.09 2489.24 1389.42 2497.03 1394.94 2504.68C1395.13 2504.98 1395.33 2505.28 1395.6 2505.6C1523.87 2683.58 1748.62 2786.89 2000.52 2842.22C1969.49 2828.76 1988.34 2768.73 2055.87 2723.97C2124.41 2680.67 2186.89 2688.05 2186.46 2721.87C2239.15 2469.41 2236.95 2222.06 2127.12 2032.15C2122.25 2023.65 2117.14 2015.31 2111.79 2007.04L1098.29 441.101L365.473 915.39Z" fill="#ADBAE0"/>
<g opacity="0.68">
<path d="M1874.7 1985.37C1874.7 1985.37 2142.27 2371.02 2095.02 2714.49L2149.67 2699.84C2196.12 2479.15 2174.97 2243.24 2038.79 1981.43" fill="white"/>
</g>
<path d="M1387.61 2394.94C1526.54 2617.73 1734.37 2741.37 1991.7 2793.77L2024.16 2748.72C1872.19 2662.71 1705.06 2533.69 1476.5 2230.33C1439.08 2272.19 1410.43 2328.7 1387.61 2394.94Z" fill="#7991CC"/>
<path d="M606.249 1286.09L1396.53 2507.13C1396.2 2506.63 1395.88 2506.13 1395.6 2505.6C1379.66 2479.75 1376.36 2440.96 1387.56 2395.13C1400.91 2340.44 1434.85 2275.84 1492.64 2211.65C1531.53 2168.43 1581.23 2125.32 1642.68 2085.55C1871.99 1937.14 2076.02 1956.93 2127.12 2032.15C2122.25 2023.65 2117.14 2015.31 2111.79 2007.04L1282.16 725.205C1268.36 739.115 1260.22 748.502 1260.22 748.502L606.249 1286.09Z" fill="#5F53F9"/>
<path d="M747.382 1406L1387.56 2395.13C1400.91 2340.44 1434.85 2275.84 1492.64 2211.65L963.962 1394.8C959.211 1273.17 1071.11 1080.24 1071.11 1080.24L826.787 1213.7L747.382 1406Z" fill="#3D39E5"/>
<g opacity="0.68">
<path d="M940.926 789.68L1387.5 1479.68C1446.85 1426.34 1508.88 1391.1 1565.67 1382.55L1154.03 746.543C1088.12 746.144 1013.82 761.333 940.926 789.68Z" fill="white"/>
</g>
<path d="M2081.3 2781.09C2084.27 2781.09 2087.28 2780.34 2090.05 2778.79C2143.69 2748.64 2168.55 2762.97 2171.22 2764.71C2176.01 2769.4 2182.62 2770.6 2189 2768.44C2195.5 2766.24 2199.71 2760.09 2200.57 2753.29L2204.25 2724.13C2205.48 2714.32 2198.54 2705.37 2188.73 2704.13C2178.9 2702.89 2169.97 2709.84 2168.73 2719.64L2167.98 2725.6C2147.93 2721.42 2116.44 2722.9 2072.52 2747.58C2063.9 2752.43 2060.84 2763.34 2065.69 2771.95C2068.97 2777.8 2075.04 2781.08 2081.3 2781.09Z" fill="#020174"/>
<path d="M2000.53 2862.25C2009.03 2862.25 2016.82 2856.8 2019.54 2848.41C2022.72 2838.62 2017.94 2828.02 2008.5 2823.91C2007.46 2823.46 2006.39 2822.99 2006.08 2819.43C2004.85 2805.38 2020.28 2771.56 2066.95 2740.63C2113.91 2710.96 2151.08 2710.74 2163.4 2717.61C2166.52 2719.36 2166.51 2720.52 2166.49 2721.66C2166.37 2731.95 2174.09 2740.65 2184.32 2741.77C2194.57 2742.88 2203.97 2736.04 2206.07 2725.97C2269.95 2419.88 2243.88 2174.35 2128.57 1996.18L1115.05 430.219C1109.05 420.944 1096.67 418.29 1087.39 424.296C1078.12 430.297 1075.47 442.68 1081.47 451.952L2094.99 2017.92C2199.52 2179.43 2226.25 2401.65 2174.6 2678.88C2142.28 2666.89 2091.88 2677.56 2045.21 2707.05C1998.86 2737.77 1968.45 2779.4 1966.15 2813.79C1692.09 2747.37 1500.31 2631.97 1395.77 2470.46L382.258 904.495C376.257 895.222 363.879 892.564 354.602 898.572C345.33 904.573 342.677 916.956 348.678 926.228L1362.2 2492.19C1477.5 2670.35 1690.82 2794.7 1996.23 2861.78C1997.67 2862.1 1999.11 2862.25 2000.53 2862.25Z" fill="#020174"/>
<path d="M1396.55 2523.57C1399.61 2523.57 1402.7 2522.72 1405.47 2520.93C1413.09 2515.99 1415.27 2505.82 1410.33 2498.19C1387.69 2463.2 1394.91 2399.17 1429.2 2331.09C1471.51 2247.08 1550.5 2164.77 1651.62 2099.32C1752.74 2033.87 1860.18 1995.52 1954.15 1991.33C2030.29 1987.93 2091.67 2007.56 2114.33 2042.56C2119.26 2050.18 2129.44 2052.36 2137.06 2047.43C2144.68 2042.5 2146.86 2032.32 2141.93 2024.69C2112.52 1979.26 2041.76 1954.52 1952.69 1958.48C1852.97 1962.93 1739.71 2003.14 1633.75 2071.72C1527.8 2140.29 1444.73 2227.15 1399.83 2316.3C1359.72 2395.95 1353.33 2470.62 1382.73 2516.06C1385.88 2520.92 1391.16 2523.57 1396.55 2523.57Z" fill="#020174"/>
<path d="M1319.18 2388.97C1319.8 2385.65 1320.42 2382.33 1321.18 2379C1338.01 2298.19 1377.43 2223.5 1430.11 2158.64C1476.82 2101.05 1533.9 2051.24 1594.95 2011.73C1636.07 1985.12 1680.74 1962.04 1727.43 1944.04C1795.96 1917.52 1868.76 1901.88 1941.12 1901.8C1978.42 1901.68 2015.63 1905.81 2051.99 1914.68C2079.97 1895 2065.08 1874.52 2065.08 1874.52L1739.6 1371.62C1696.14 1347.3 1638.02 1328.64 1568.41 1325.94C1505.31 1323.51 1432.77 1334.29 1353.2 1365.82C1311.13 1382.6 1267.09 1405.14 1221.46 1434.66C1150.25 1480.75 1096.12 1530.29 1055.71 1580.17C991.02 1660.06 961.462 1740.86 953.106 1810.29C950.013 1835.82 949.753 1859.79 951.691 1881.56L1277.18 2384.46C1277.18 2384.46 1289.82 2406.41 1319.18 2388.97Z" fill="#F7E71C"/>
<path d="M953.106 1810.3L1321.18 2379C1338.01 2298.18 1377.43 2223.5 1430.11 2158.64L1055.71 1580.17C991.02 1660.06 961.462 1740.86 953.106 1810.3Z" fill="#F9B110"/>
<g opacity="0.68">
<path d="M1353.2 1365.82L1727.43 1944.04C1795.96 1917.52 1868.76 1901.88 1941.12 1901.81L1568.41 1325.94C1505.31 1323.51 1432.77 1334.29 1353.2 1365.82Z" fill="white"/>
</g>
<path d="M1298 2415.68C1306.5 2415.68 1317.16 2413.43 1329.39 2406.16C1334.35 2403.22 1337.79 2398.28 1338.84 2392.61C1364.39 2254.5 1461.7 2121.8 1605.82 2028.52C1749.95 1935.24 1910.85 1900.83 2047.25 1934.11C2052.86 1935.48 2058.77 1934.36 2063.5 1931.04C2081.26 1918.55 2086.87 1904.64 2088.44 1895.16C2091.14 1878.95 2084.09 1866.91 2081.71 1863.4L1756.38 1360.75C1754.61 1358.02 1752.2 1355.75 1749.36 1354.17C1704.94 1329.3 1630.08 1300.81 1525.77 1306.31C1422.63 1311.74 1316.59 1349.28 1210.6 1417.88C1104.58 1486.49 1026.9 1567.87 979.695 1659.74C931.951 1752.67 927.28 1832.62 931.77 1883.32C932.058 1886.57 933.132 1889.69 934.902 1892.43L1260.23 2395.09C1262.44 2398.66 1270.56 2410.05 1286.51 2414.23C1289.7 2415.06 1293.55 2415.68 1298 2415.68ZM1301.51 2375.16C1298.69 2375.94 1295.98 2375.96 1294.34 2374.11C1294.23 2373.86 1294.39 2374.25 1293.96 2373.59L971.232 1874.94C966.891 1811.61 977.157 1616.61 1232.33 1451.45C1487.46 1286.34 1669.55 1356.84 1725.56 1386.74L2048.29 1885.38C2048.73 1886.06 2048.43 1885.75 2048.63 1885.97C2049.64 1888.2 2048.51 1890.67 2046.64 1892.91C1901.84 1861.05 1733.92 1897.97 1584.08 1994.94C1434.27 2091.91 1331.8 2229.99 1301.51 2375.16ZM1294.5 2374.48C1294.51 2374.48 1294.51 2374.48 1294.51 2374.48H1294.5Z" fill="#020174"/>
<path d="M2029.35 2868.85C2034.08 2868.85 2038.68 2867.14 2041.96 2863.61C2046.55 2858.66 2048.16 2852.15 2045.84 2845.86C2045.34 2842.71 2042.46 2814.16 2091.93 2777.57C2099.87 2771.7 2101.55 2760.49 2095.67 2752.54C2089.8 2744.6 2078.59 2742.92 2070.64 2748.8C2030.13 2778.76 2015.87 2806.88 2011.48 2826.89L2005.75 2825.13C1996.3 2822.25 1986.29 2827.56 1983.4 2837.02C1980.52 2846.47 1985.84 2856.48 1995.29 2859.36L2023.4 2867.95C2025.34 2868.55 2027.36 2868.85 2029.35 2868.85Z" fill="#020174"/>
<path d="M2174.31 2976.06C2187.03 2976.06 2199.67 2972.16 2211.56 2964.47C2228.76 2953.33 2239.36 2937.51 2242.23 2918.73C2247.98 2880.96 2221.43 2841.85 2211.4 2828.66L2200.54 2748.64C2199.21 2738.85 2190.2 2732.01 2180.41 2733.31C2170.61 2734.64 2163.75 2743.66 2165.08 2753.45L2176.59 2838.32C2177.04 2841.64 2178.42 2844.78 2180.56 2847.36C2189.09 2857.68 2210.48 2889.73 2206.83 2913.39C2205.49 2922.1 2200.81 2928.78 2192.11 2934.42C2183.39 2940.06 2175.36 2941.58 2166.84 2939.23C2143.72 2932.81 2122.89 2899.42 2117.41 2888.23C2115.93 2885.21 2113.64 2882.67 2110.79 2880.9L2038.08 2835.64C2029.69 2830.42 2018.65 2832.99 2013.43 2841.38C2008.21 2849.77 2010.78 2860.81 2019.17 2866.03L2087.73 2908.7C2095.65 2923.25 2120.45 2963.5 2157.27 2973.71C2162.93 2975.28 2168.63 2976.06 2174.31 2976.06Z" fill="#020174"/>
<path d="M2118.33 2901.69C2118.38 2901.55 2124 2886.76 2149.84 2869.11C2176.54 2852.75 2192.32 2853.68 2192.47 2853.71L2191.96 2853.65L2196.69 2818.17C2193.97 2817.81 2168.96 2815.29 2130.73 2838.85C2130.5 2838.98 2130.28 2839.13 2130.06 2839.28C2092.92 2864.5 2084.97 2888.35 2084.18 2890.99L2118.49 2901.2L2118.33 2901.69Z" fill="#020174"/>
<path d="M305.931 876.971L828.677 1684.66C844.986 1710.62 859.29 1711.32 872.499 1698.79C855.172 1612.51 861.876 1520.98 885.023 1432.25C927.269 1270.04 1024.51 1116.93 1130.46 1021.64C1189.81 968.305 1251.84 933.06 1308.63 924.516C1358.17 916.965 1403.62 929.761 1439.66 968.539L1459.27 945.26L1087.63 371.046C1051.19 314.757 980.924 288.965 896.99 288.503C831.075 288.104 756.773 303.293 683.882 331.639C638.388 349.288 593.354 372.04 551.287 399.266C488.036 440.203 431.333 491.256 386.394 545.993C324.261 621.593 284.636 704.084 281.106 776.361C279.312 813.336 286.97 847.674 305.931 876.971Z" fill="#F7E71C"/>
<g opacity="0.68">
<path d="M683.881 331.64L1130.46 1021.64C1189.81 968.305 1251.84 933.06 1308.63 924.516L896.989 288.504C831.074 288.105 756.773 303.294 683.881 331.64Z" fill="white"/>
</g>
<path d="M283.325 769.993L293.122 779.64L816.775 1588.73L873.159 1421.13L887.471 1310.4L388.613 539.625C326.479 615.225 286.855 697.716 283.325 769.993Z" fill="#F9B110"/>
<path d="M818.208 1668.48L828.677 1684.66C844.986 1710.62 859.29 1711.32 872.499 1698.79C790.346 1289.59 1248.23 762.583 1439.66 968.54L1459.26 945.261L1436.06 909.404L1431.96 910.208C1431.96 910.208 1330.02 804.084 1144 938.047C957.99 1072.01 837.109 1370.95 824.088 1458.54C815.837 1514.19 812.644 1600.6 818.208 1668.48Z" fill="#F9B110"/>
<path d="M855.952 1726.69C864.16 1726.69 875.017 1723.94 886.262 1713.26C891.252 1708.53 893.457 1701.56 892.104 1694.82C866.069 1565.1 894.609 1411.61 972.465 1262.64C1041.58 1130.4 1143.79 1017.87 1239.2 968.989C1292.83 941.506 1368.6 921.491 1424.99 982.153C1428.89 986.347 1434.47 988.566 1440.12 988.532C1445.84 988.393 1451.23 985.807 1454.92 981.43L1474.55 958.156C1480.23 951.43 1480.84 941.784 1476.05 934.396L1104.4 360.172C1061.26 293.512 974.524 261.417 860.215 269.757C755.913 277.379 639.365 318.465 540.457 382.482C441.546 446.496 356.331 535.995 306.661 628.026C252.218 728.902 245.994 821.168 289.137 887.828L811.888 1695.52C823.721 1714.37 836.69 1724.55 851.392 1726.4C852.795 1726.58 854.321 1726.69 855.952 1726.69ZM1335.04 902.414C1299.78 902.414 1261.35 912.697 1220.96 933.388C1117.02 986.645 1010.87 1102.81 937.017 1244.12C859.649 1392.15 828.66 1545.33 848.66 1678.56C847.72 1677.26 846.702 1675.75 845.616 1674.02L322.716 866.096C251.024 755.325 362.928 545.027 562.191 416.062C655.633 355.583 765.323 316.799 863.131 309.653C962.223 302.402 1035.98 328.073 1070.83 381.906L1425.51 929.921C1398.9 911.618 1368.39 902.414 1335.04 902.414Z" fill="#020174"/>
<path d="M1472.23 937.9C1427.49 860.412 1337.62 843.762 1257.33 868.954C1182.81 891.575 1118.5 940.057 1065.43 995.212C1029.87 1031.93 999.251 1072.89 971.69 1115.5C969.708 1118.57 970.584 1122.66 973.651 1124.64C976.69 1126.61 980.744 1125.75 982.74 1122.76C1011.04 1081.54 1042.19 1042.19 1077.79 1007.42C1154.84 930.51 1292.43 842.729 1400.08 903.688C1419.81 915.279 1435.18 932.978 1446.47 952.94C1456.75 969.912 1481.98 955.377 1472.23 937.9Z" fill="#020174"/>
<path d="M842.45 1678.93C822.076 1631.29 819.826 1576.01 823.905 1524.21C828.505 1470.86 840.685 1417.71 860.49 1367.52C861.851 1364.12 860.189 1360.26 856.779 1358.91C853.495 1357.62 849.794 1359.15 848.339 1362.31C825.358 1412.89 810.091 1466.76 802.511 1521.86C795.342 1578.06 794.856 1635.82 814.908 1690.38C822.613 1709.12 850.319 1697.75 842.45 1678.93Z" fill="#020174"/>
<path d="M467.448 1343.88C474.977 1343.88 481.984 1339.09 484.452 1331.55C487.528 1322.15 482.406 1312.05 473.014 1308.97L322.401 1259.66C312.987 1256.59 302.897 1261.71 299.825 1271.1C296.749 1280.5 301.871 1290.6 311.263 1293.68L461.876 1342.99C463.728 1343.59 465.605 1343.88 467.448 1343.88Z" fill="#020174"/>
<g opacity="0.56">
<path d="M505.852 1632.09C424.249 1649.31 276.388 1443.05 277.091 1278.64C217.107 1414.61 394.457 1708.83 505.852 1632.09Z" fill="white"/>
</g>
<g opacity="0.56">
<path d="M551.81 1602.39C589.211 1529.52 697.6 1569.18 709.354 1672.68C689.169 1613.87 628.171 1552.96 551.81 1602.39Z" fill="white"/>
</g>
</svg>
